<svg width="21" height="22" viewBox="0 0 21 22" fill="none" xmlns="http://www.w3.org/2000/svg">
<path d="M19.6244 7.50391C19.5153 7.56519 16.9172 8.85841 16.9172 11.7258C17.0397 14.9959 20.1959 16.1427 20.25 16.1427C20.1959 16.2039 19.7735 17.7049 18.5224 19.2783C17.5295 20.6336 16.4275 22 14.754 22C13.1621 22 12.5907 21.0967 10.754 21.0967C8.78147 21.0967 8.22335 22 6.71314 22C5.03967 22 3.85599 20.5603 2.80896 19.2178C1.44871 17.4606 0.29254 14.703 0.251723 12.0553C0.224217 10.6522 0.524128 9.27304 1.28544 8.10158C2.35998 6.46614 4.27835 5.35595 6.3733 5.31935C7.97845 5.2708 9.40703 6.30777 10.3866 6.30777C11.3254 6.30777 13.0805 5.31935 15.0663 5.31935C15.9235 5.32014 18.2092 5.55173 19.6244 7.50391ZM10.2509 5.03921C9.96515 3.75792 10.754 2.47663 11.4887 1.65931C12.4274 0.670887 13.9101 0 15.1888 0C15.2704 1.28129 14.7531 2.53791 13.8285 3.45312C12.9989 4.44154 11.5703 5.18565 10.2509 5.03921Z" fill="#111827"/>
</svg>
