<svg width="20" height="20" viewBox="0 0 20 20" fill="none" xmlns="http://www.w3.org/2000/svg">
<path d="M1.42859 5H18.5714" stroke="#EF4444" strokeLinecap="round" strokeLinejoin="round"/>
<path d="M3.57147 5H16.4286V17.8571C16.4286 18.236 16.278 18.5994 16.0102 18.8673C15.7423 19.1351 15.3789 19.2857 15 19.2857H5.00004C4.62116 19.2857 4.2578 19.1351 3.98989 18.8673C3.72199 18.5994 3.57147 18.236 3.57147 17.8571V5Z" stroke="#EF4444" strokeLinecap="round" strokeLinejoin="round"/>
<path d="M6.42859 4.99958V4.2853C6.42859 3.3381 6.80486 2.42968 7.47463 1.75991C8.1444 1.09014 9.05282 0.713867 10 0.713867C10.9472 0.713867 11.8556 1.09014 12.5254 1.75991C13.1952 2.42968 13.5714 3.3381 13.5714 4.2853V4.99958" stroke="#EF4444" strokeLinecap="round" strokeLinejoin="round"/>
<path d="M7.85718 9.28711V15.0036" stroke="#EF4444" strokeLinecap="round" strokeLinejoin="round"/>
<path d="M12.1429 9.28711V15.0036" stroke="#EF4444" strokeLinecap="round" strokeLinejoin="round"/>
</svg>
