<svg width="23" height="22" viewBox="0 0 23 22" fill="none" xmlns="http://www.w3.org/2000/svg">
<path d="M21.3759 11.2139C21.3759 10.4225 21.3104 9.84497 21.1686 9.24609H11.9474V12.818H17.36C17.251 13.7057 16.6617 15.0425 15.3521 15.9408L15.3338 16.0603L18.2493 18.2738L18.4513 18.2936C20.3065 16.6145 21.3759 14.1441 21.3759 11.2139Z" fill="#4285F4"/>
<path d="M11.9468 20.6248C14.5985 20.6248 16.8247 19.7692 18.4507 18.2934L15.3515 15.9405C14.5222 16.5073 13.409 16.903 11.9468 16.903C9.34958 16.903 7.14524 15.224 6.35945 12.9033L6.24427 12.9129L3.21262 15.2122L3.17297 15.3202C4.78803 18.4644 8.10548 20.6248 11.9468 20.6248Z" fill="#34A853"/>
<path d="M6.36006 12.9034C6.15272 12.3045 6.03273 11.6628 6.03273 10.9997C6.03273 10.3366 6.15272 9.695 6.34915 9.09612L6.34366 8.96857L3.274 6.63232L3.17357 6.67914C2.50792 7.98388 2.12598 9.44905 2.12598 10.9997C2.12598 12.5504 2.50792 14.0155 3.17357 15.3203L6.36006 12.9034Z" fill="#FBBC05"/>
<path d="M11.9468 5.09664C13.791 5.09664 15.0351 5.87733 15.7444 6.52974L18.5162 3.8775C16.8139 2.32681 14.5986 1.375 11.9468 1.375C8.10551 1.375 4.78804 3.53526 3.17297 6.6794L6.34856 9.09638C7.14526 6.77569 9.34961 5.09664 11.9468 5.09664Z" fill="#EB4335"/>
</svg>
